<svg width="1280" height="640" viewBox="0 0 1280 640" fill="none" xmlns="http://www.w3.org/2000/svg" role="img" aria-labelledby="title desc">
  <title id="title">SevenTec Atlas social preview</title>
  <desc id="desc">Premium dark social preview for SevenTec Atlas, architecture intelligence SaaS.</desc>

  <defs>
    <linearGradient id="bg" x1="0" y1="0" x2="1280" y2="640" gradientUnits="userSpaceOnUse">
      <stop stop-color="#07111F"/>
      <stop offset="1" stop-color="#0B1530"/>
    </linearGradient>
    <linearGradient id="stroke" x1="186" y1="168" x2="1102" y2="472" gradientUnits="userSpaceOnUse">
      <stop stop-color="#2B5FFF" stop-opacity="0.28"/>
      <stop offset="1" stop-color="#4FDBB4" stop-opacity="0.12"/>
    </linearGradient>
    <linearGradient id="accent" x1="0" y1="0" x2="1" y2="1">
      <stop stop-color="#4FDBB4"/>
      <stop offset="1" stop-color="#2B5FFF"/>
    </linearGradient>
    <filter id="glow" x="-20%" y="-20%" width="140%" height="140%">
      <feGaussianBlur stdDeviation="18" result="blur"/>
      <feMerge>
        <feMergeNode in="blur"/>
        <feMergeNode in="SourceGraphic"/>
      </feMerge>
    </filter>
  </defs>

  <rect width="1280" height="640" rx="24" fill="url(#bg)"/>
  <rect x="44" y="44" width="1192" height="552" rx="24" fill="#0A1326" stroke="rgba(255,255,255,0.06)"/>

  <g opacity="0.16">
    <path d="M160 120H1120" stroke="#8AA0C8" stroke-width="1"/>
    <path d="M160 212H1120" stroke="#8AA0C8" stroke-width="1"/>
    <path d="M160 304H1120" stroke="#8AA0C8" stroke-width="1"/>
    <path d="M160 396H1120" stroke="#8AA0C8" stroke-width="1"/>
    <path d="M160 488H1120" stroke="#8AA0C8" stroke-width="1"/>
    <path d="M320 104V520" stroke="#8AA0C8" stroke-width="1"/>
    <path d="M544 104V520" stroke="#8AA0C8" stroke-width="1"/>
    <path d="M768 104V520" stroke="#8AA0C8" stroke-width="1"/>
    <path d="M992 104V520" stroke="#8AA0C8" stroke-width="1"/>
  </g>

  <g filter="url(#glow)">
    <rect x="160" y="118" width="188" height="104" rx="18" fill="#0F1B33" stroke="url(#stroke)"/>
    <rect x="160" y="250" width="188" height="104" rx="18" fill="#0F1B33" stroke="url(#stroke)"/>
    <rect x="160" y="382" width="188" height="104" rx="18" fill="#0F1B33" stroke="url(#stroke)"/>
  </g>

  <rect x="392" y="118" width="696" height="368" rx="24" fill="#0D1830" stroke="url(#stroke)"/>
  <rect x="424" y="156" width="164" height="12" rx="6" fill="#7B8FB4" opacity="0.35"/>
  <rect x="424" y="188" width="236" height="18" rx="9" fill="#E7EEFF" opacity="0.92"/>
  <rect x="424" y="226" width="412" height="10" rx="5" fill="#8EA3C8" opacity="0.42"/>
  <rect x="424" y="246" width="344" height="10" rx="5" fill="#8EA3C8" opacity="0.28"/>

  <rect x="424" y="296" width="190" height="96" rx="18" fill="#101E39" stroke="rgba(255,255,255,0.06)"/>
  <rect x="644" y="296" width="190" height="96" rx="18" fill="#101E39" stroke="rgba(255,255,255,0.06)"/>
  <rect x="864" y="296" width="190" height="96" rx="18" fill="#101E39" stroke="rgba(255,255,255,0.06)"/>

  <rect x="444" y="322" width="86" height="10" rx="5" fill="#90A5C9" opacity="0.38"/>
  <rect x="444" y="348" width="52" height="22" rx="11" fill="#4FDBB4" opacity="0.85"/>
  <rect x="664" y="322" width="86" height="10" rx="5" fill="#90A5C9" opacity="0.38"/>
  <rect x="664" y="348" width="52" height="22" rx="11" fill="#2B5FFF" opacity="0.9"/>
  <rect x="884" y="322" width="86" height="10" rx="5" fill="#90A5C9" opacity="0.38"/>
  <rect x="884" y="348" width="52" height="22" rx="11" fill="#7F8DA8" opacity="0.85"/>

  <g>
    <circle cx="142" cy="116" r="18" fill="#0E1A32" stroke="rgba(255,255,255,0.08)"/>
    <path d="M134 108H150L144 116L150 124H134L140 116L134 108Z" fill="url(#accent)"/>
  </g>

  <text x="160" y="562" fill="#EAF1FF" font-family="Inter, Segoe UI, Arial, sans-serif" font-size="56" font-weight="700">SevenTec Atlas</text>
  <text x="160" y="602" fill="#A9B9D6" font-family="Inter, Segoe UI, Arial, sans-serif" font-size="26" font-weight="500">Architecture Intelligence for modern web systems</text>

  <text x="700" y="548" fill="#DDE8FF" font-family="Inter, Segoe UI, Arial, sans-serif" font-size="18" font-weight="600">Deterministic scoring</text>
  <text x="914" y="548" fill="#DDE8FF" font-family="Inter, Segoe UI, Arial, sans-serif" font-size="18" font-weight="600">Executive-grade reports</text>
  <text x="700" y="580" fill="#DDE8FF" font-family="Inter, Segoe UI, Arial, sans-serif" font-size="18" font-weight="600">Controlled AI enrichment</text>

  <circle cx="682" cy="542" r="4" fill="#4FDBB4"/>
  <circle cx="896" cy="542" r="4" fill="#4FDBB4"/>
  <circle cx="682" cy="574" r="4" fill="#4FDBB4"/>
</svg>
